<svg version="1.1" xmlns="http://www.w3.org/2000/svg" viewBox="0 0 137.145 137.145" xmlns:xlink="http://www.w3.org/1999/xlink" enable-background="new 0 0 137.145 137.145">
<g>
<g>
<path d="m109.715,0h-82.286c-15.148,0-27.429,12.281-27.429,27.429v82.287c0,15.148 12.28,27.428 27.429,27.428h82.286c15.149,0 27.429-12.28 27.429-27.428v-82.287c0-15.148-12.28-27.429-27.429-27.429zm13.715,102.859c0,11.361-9.21,20.572-20.572,20.572h-68.572c-11.361,0-20.572-9.21-20.572-20.572v-68.572c0-11.362 9.21-20.572 20.572-20.572h68.572c11.361,0 20.572,9.21 20.572,20.572v68.572zm-28.407-18.78c-3.734-2.021 3.32-11.332 5.157-17.156 2.343-7.43-0.395-11.301-0.768-12.302-2.609-7.001-0.537-1.743-5.291-7.709-0.64-0.803 0.16,2.092-2.105,7.913-3.021,7.766-11.62,16.002-17.03,10.239-3.594-3.828 4.15-10.571 7.122-18.337 2.125-5.553-0.81-11.188-1.781-11.681-7.11-3.602-7.207-3.806-15.54-5.596-1.264-0.272 6.754,14.181-6.178,25.155-1.7,1.443-9.24,1.306-6.551-5.704 0.26-0.678 1.251-5.306 1.927-10.268 0.908-6.67-0.985-11.123-1.92-11.167-9.151-0.426-16.964,1.662-21.2,5.843-10.215,10.082 4.231,28.515 24.661,48.678 20.43,20.163 39.108,34.42 49.323,24.339 4.794-4.731 6.201-19.409 4.104-31.005-0.379-2.095-4.316,13.962-13.93,8.758z" id="id_101" style="fill: rgb(255, 255, 255);"></path>
</g>
</g>
</svg>